Coordinates
version=1
nRows=26
nColumns=24
inDegrees=yes

Units are S.I. units (second, meters, Newtons, ...)
Angles are in degrees.

endheader
time	pelvis_tilt	pelvis_list	pelvis_rotation	pelvis_tx	pelvis_ty	pelvis_tz	hip_flexion_r	hip_adduction_r	hip_rotation_r	knee_angle_r	ankle_angle_r	subtalar_angle_r	mtp_angle_r	hip_flexion_l	hip_adduction_l	hip_rotation_l	knee_angle_l	ankle_angle_l	subtalar_angle_l	mtp_angle_l	lumbar_extension	lumbar_bending	lumbar_rotation
      0.70400000	      0.90135802	      1.38975976	     10.66255688	     -0.07092227	      0.99807842	      0.27081254	     24.53013594	     -2.37490435	     -9.22100126	      1.90646109	      8.26326691	     -5.28447524	      5.53345799	    -17.98503028	      3.59634170	     14.07078357	    -13.22022076	     15.60815974	     -6.74962548	     -2.17674925	    -10.15839880	     -2.05585870	     -8.90729083
      0.70816667	      0.89854573	      1.28216784	     10.78212249	     -0.06509194	      0.99745231	      0.27083023	     24.59827591	     -2.29061649	     -9.12090639	      1.25684953	      8.34951277	     -5.58812433	      5.54524807	    -18.19158980	      3.38556273	     14.05000313	    -13.42618646	     15.46541583	     -6.65539991	     -2.17421526	    -10.05521902	     -1.88166434	     -8.95675556
      0.71233333	      0.84231217	      1.16775274	     10.89377986	     -0.05921415	      0.99675468	      0.27092574	     24.68180381	     -2.18652956	     -8.81482395	      0.69607576	      8.15529462	     -6.34317381	      5.59965117	    -18.31575034	      3.17156871	     13.95558492	    -13.68197502	     15.37907196	     -6.40961380	     -2.11802464	     -9.89700670	     -1.73848960	     -9.11870295
      0.71650000	      0.83261073	      1.04067259	     11.00447003	     -0.05327249	      0.99615803	      0.27100645	     24.70854123	     -2.05907435	     -8.59395976	      0.13888467	      7.95128141	     -7.02194067	      5.67781316	    -18.49834581	      2.93746100	     13.89307380	    -13.91486730	     15.22423784	     -6.25581063	     -2.02761447	     -9.77535409	     -1.55534679	     -9.19408635
      0.72066667	      0.83197146	      0.90642433	     11.11330955	     -0.04728813	      0.99559303	      0.27109822	     24.71724674	     -1.91668834	     -8.39213949	     -0.40393116	      7.68293430	     -7.73261927	      5.78104155	    -18.68363145	      2.69406780	     13.82397815	    -14.15891294	     15.04671744	     -6.10525138	     -1.89790889	     -9.66080346	     -1.36736752	     -9.27111887
      0.72483333	      0.82448755	      0.76752012	     11.21942755	     -0.04125549	      0.99505131	      0.27120759	     24.72506310	     -1.76389269	     -8.20977401	     -0.93023562	      7.33569248	     -8.48496257	      5.90512853	    -18.85243283	      2.44741363	     13.74673054	    -14.41830916	     14.84602968	     -5.95943666	     -1.73311589	     -9.53053706	     -1.17343675	     -9.34220992
      0.72900000	      0.82719336	      0.61815467	     11.32379876	     -0.03517902	      0.99455073	      0.27134118	     24.70806584	     -1.59036560	     -8.03340477	     -1.42263233	      6.90023699	     -9.28667189	      6.05545316	    -19.02131602	      2.18602384	     13.65364771	    -14.69250872	     14.61938387	     -5.80764981	     -1.52598138	     -9.40348448	     -0.96840898	     -9.41043861
      0.73316667	      0.82228123	      0.45909978	     11.42095458	     -0.02905283	      0.99406985	      0.27148764	     24.69513163	     -1.40166191	     -7.88139960	     -1.90131243	      6.39482842	    -10.09101115	      6.21549947	    -19.17207417	      1.91857123	     13.54734451	    -14.98222109	     14.37032082	     -5.65855474	     -1.29490927	     -9.25962066	     -0.75373793	     -9.46760403
      0.73733333	      0.83098885	      0.29409393	     11.51511566	     -0.02289223	      0.99364164	      0.27166343	     24.65610488	     -1.19560519	     -7.73230450	     -2.34809703	      5.81302409	    -10.94201717	      6.41383624	    -19.32715069	      1.64088841	     13.43001938	    -15.28445400	     14.08408822	     -5.49652383	     -1.00026241	     -9.12895058	     -0.53617789	     -9.52316023
      0.74150000	      0.83949747	      0.11900520	     11.60166173	     -0.01668994	      0.99324446	      0.27184133	     24.61421997	     -0.97499694	     -7.61329530	     -2.78225011	      5.16647043	    -11.77381651	      6.62393408	    -19.46831085	      1.35632708	     13.29135720	    -15.60821221	     13.78029075	     -5.34166584	     -0.67416757	     -8.99085220	     -0.29894790	     -9.56369915
      0.74566667	      0.85203648	     -0.06698273	     11.68171986	     -0.01045495	      0.99288965	      0.27204601	     24.56457768	     -0.73509190	     -7.50339989	     -3.19981405	      4.45394697	    -12.60451825	      6.84890930	    -19.60123728	      1.06106916	     13.13977312	    -15.94777839	     13.44381560	     -5.18137611	     -0.31110969	     -8.85180460	     -0.05541549	     -9.59611100
      0.74983333	      0.85166772	     -0.25530499	     11.75051317	     -0.00418980	      0.99255049	      0.27228036	     24.53850597	     -0.49249858	     -7.44716949	     -3.62870705	      3.69801371	    -13.34147506	      9.00814531	    -19.70108433	      0.76419263	     12.93125026	    -16.30799341	     12.98705039	     -5.00792841	      3.24069226	     -8.69282387	      0.17929682	     -9.58410508
      0.75400000	      0.85882113	     -0.45760552	     11.81801657	      0.00210085	      0.99227028	      0.27251885	     24.49604351	     -0.22874235	     -7.38660864	     -4.03896656	      2.94105703	    -14.07430455	      9.01241969	    -19.80266579	      0.46191955	     12.78578720	    -16.68577847	     12.59299997	     -4.90168234	      3.30399919	     -8.53218688	      0.45153251	     -9.64184692
      0.75816667	      0.88553524	     -0.67176539	     11.86949405	      0.00841147	      0.99205009	      0.27279169	     24.43349397	      0.05984979	     -7.32139776	     -4.44227111	      2.14849311	    -14.80307187	      9.04533548	    -19.90210850	      0.14345536	     12.56803354	    -17.09463685	     12.16800918	     -4.72998353	      3.43261041	     -8.39795459	      0.73142212	     -9.63798891
      0.76233333	      0.89703604	     -0.89101940	     11.91094697	      0.01474111	      0.99185432	      0.27309646	     24.39238915	      0.35597086	     -7.25766855	     -4.85415117	      1.35799343	    -15.48558394	      9.10346489	    -19.96684345	     -0.17369610	     12.33430935	    -17.53152945	     11.71282196	     -4.55720896	      3.62256509	     -8.24188241	      1.01092985	     -9.63495700
      0.76650000	      0.90551370	     -1.11788366	     11.93962972	      0.02108070	      0.99169984	      0.27342580	     24.36281215	      0.66362297	     -7.19998524	     -5.28162525	      0.58109608	    -16.11179475	      9.18490794	    -20.00896502	     -0.49365674	     12.07669113	    -17.99617976	     11.22019300	     -4.37834864	      3.87869791	     -8.08004497	      1.29420259	     -9.61732570
      0.77066667	      0.92834328	     -1.36212114	     11.95139963	      0.02744622	      0.99160588	      0.27378183	     24.32360062	      0.99798569	     -7.14249790	     -5.71878562	     -0.17700074	    -16.66047396	      9.28141071	    -20.05432776	     -0.82822825	     11.80309803	    -18.47200856	     10.68820527	     -4.18765640	      4.18946218	     -7.93647159	      1.62498881	     -9.58330434
      0.77483333	      0.95828246	     -1.58081134	     11.94798332	      0.03378065	      0.99157767	      0.27420800	     24.28259334	      1.31780111	     -7.05146835	     -6.17672950	     -0.90557555	    -17.23426657	      9.45868176	    -20.07764306	     -1.14159384	     11.45512490	    -18.99383625	     10.07302614	     -3.94241503	      4.76993698	     -7.81720170	      1.86693421	     -9.53923030
      0.77900000	      1.02383902	     -1.85203355	     11.94567485	      0.04017419	      0.99163927	      0.27457932	     24.22554468	      1.68332680	     -7.09687688	     -6.67885087	     -1.48840476	    -17.55002565	     10.62083337	    -20.13175424	     -1.50998913	     11.12623470	    -19.50090114	      9.34484359	     -3.85175832	      8.85998710	     -7.71393027	      2.24397597	     -9.50708999
      0.78316667	      0.98264149	     -2.09660649	     11.90863506	      0.04653145	      0.99159153	      0.27503374	     24.30914963	      2.01102211	     -7.07389791	     -7.24995190	     -2.04767556	    -17.83535185	     10.61717494	    -20.03343942	     -1.81594981	     10.75932124	    -20.09984995	      8.71598475	     -3.68073749	      8.94740507	     -7.48490146	      2.53034626	     -9.43600649
      0.78733333	      1.02910698	     -2.36237840	     11.85990320	      0.05291344	      0.99171406	      0.27551561	     24.28790982	      2.38719835	     -7.03280499	     -7.79749219	     -2.56456944	    -18.13597447	     10.62596236	    -20.01797479	     -2.16394949	     10.34621157	    -20.69916955	      8.02393724	     -3.46730211	      9.13481011	     -7.37083334	      2.86764813	     -9.34861783
      0.79150000	      1.07006391	     -2.59921021	     11.79857025	      0.05926873	      0.99189375	      0.27600152	     24.29975037	      2.72346194	     -7.05673412	     -8.43094626	     -2.89261536	    -18.18275190	     10.62690210	    -19.98832905	     -2.46869014	      9.96934190	    -21.30617222	      7.19270238	     -3.37105057	      9.19509538	     -7.25177345	      3.16592569	     -9.32413960
      0.79566667	      1.09812112	     -2.88371161	     11.71029371	      0.06565580	      0.99205569	      0.27658169	     24.31549802	      3.13107935	     -6.96426788	     -9.02343404	     -3.33259332	    -18.49168061	     10.64568037	    -19.89449950	     -2.83408232	      9.43031708	    -21.99918832	      6.49017046	     -3.03584170	      9.59976935	     -7.11943782	      3.52145569	     -9.12967250
      0.79983333	      1.16013979	     -3.13260975	     11.61915901	      0.07201603	      0.99234819	      0.27715031	     24.30339341	      3.49880399	     -6.92605072	     -9.66793262	     -3.58779672	    -18.56825475	     10.80307660	    -19.84241068	     -3.16099230	      8.95943703	    -22.65234109	      5.47135439	     -2.92908887	     14.06374798	     -7.05077868	      3.83578300	     -9.07828993
      0.80400000	      1.20343548	     -3.37154004	     11.51291403	      0.07836770	      0.99265691	      0.27772234	     24.32410929	      3.84774025	     -6.93420102	    -10.35419884	     -3.77261566	    -18.52960814	     10.79963897	    -19.74774557	     -3.46326685	      8.48951065	    -23.35836193	      4.52080868	     -2.82218450	     14.07043593	     -6.94248735	      4.13992611	     -9.03519988
      0.80816667	      1.22609487	     -3.62847244	     11.37464267	      0.08473325	      0.99294951	      0.27838318	     24.37210315	      4.22538839	     -6.89937588	    -11.05858317	     -3.86093992	    -18.45226944	     10.78457038	    -19.59481753	     -3.78946339	      7.90460869	    -24.12645198	      3.62211793	     -2.54320677	     14.22319458	     -6.82088488	      4.45427558	     -8.81610502
